<svg enable-background="new 0 0 20 19.5" viewBox="0 0 20 19.5" xmlns="http://www.w3.org/2000/svg"><path clip-rule="evenodd" d="m10 0c-5.5 0-10 4.5-10 10 0 4.4 2.9 8.2 6.8 9.5.5.1.7-.2.7-.5 0-.2 0-1 0-1.9-2.5.5-3.2-.6-3.3-1.1-.1-.3-.6-1.2-1-1.4-.3-.2-.8-.6 0-.7.8 0 1.4.7 1.5 1 .9 1.5 2.3 1.1 2.9.9.1-.6.3-1.1.6-1.3-2.2-.3-4.5-1.2-4.5-5 0-1.1.4-2 1-2.7-.1-.3-.5-1.3.1-2.7 0 0 .8-.3 2.8 1 .7-.2 1.6-.3 2.4-.3s1.7.1 2.5.3c1.9-1.3 2.8-1 2.8-1 .5 1.4.2 2.4.1 2.7.6.7 1 1.6 1 2.7 0 3.8-2.3 4.7-4.6 4.9.4.3.7.9.7 1.9v2.8c0 .3.2.6.7.5 4-1.3 6.8-5.1 6.8-9.5 0-5.6-4.5-10.1-10-10.1z" fill="#1b1f23" fill-rule="evenodd"/></svg>