<svg enable-background="new 0 0 20 20" viewBox="0 0 20 20" xmlns="http://www.w3.org/2000/svg" xmlns:xlink="http://www.w3.org/1999/xlink"><radialGradient id="a" cx="-603.0173" cy="811.7922" gradientTransform="matrix(0 -1.982 1.8439 0 -1491.5541 -1173.6573)" gradientUnits="userSpaceOnUse" r="9.9923"><stop offset="0" stop-color="#fd5"/><stop offset=".1" stop-color="#fd5"/><stop offset=".5" stop-color="#ff543e"/><stop offset="1" stop-color="#c837ab"/></radialGradient><radialGradient id="b" cx="568.2048" cy="381.2207" gradientTransform="matrix(.1739 .8687 -3.5818 .7172 1263.2953 -765.5728)" gradientUnits="userSpaceOnUse" r="9.9923"><stop offset="0" stop-color="#3771c8"/><stop offset=".128" stop-color="#3771c8"/><stop offset="1" stop-color="#60f" stop-opacity="0"/></radialGradient><path d="m10 0c-4.2 0-5.4 0-5.6 0-.9.1-1.4.2-2 .5-.4.2-.8.5-1.2.9-.6.6-1 1.4-1.1 2.4-.1.5-.1.6-.1 2.9v3.3 5.6c.1.8.2 1.4.5 1.9.5 1.1 1.5 2 2.7 2.3.5.1.9.2 1.5.2h5.3s5 0 5.3 0c.7 0 1.1-.1 1.5-.2 1.2-.3 2.2-1.1 2.7-2.2.3-.6.4-1.1.5-1.9 0-.2 0-2.9 0-5.7s0-5.5 0-5.7c-.1-.8-.2-1.3-.5-1.9-.2-.4-.5-.8-.9-1.1-.7-.6-1.5-1-2.4-1.2-.4-.1-.5-.1-2.9-.1z" fill="url(#a)"/><path d="m10 0c-4.2 0-5.4 0-5.6 0-.9.1-1.4.2-2 .5-.4.2-.8.5-1.2.9-.6.6-1 1.4-1.1 2.4-.1.5-.1.6-.1 2.9v3.3 5.6c.1.8.2 1.4.5 1.9.5 1.1 1.5 2 2.7 2.3.5.1.9.2 1.5.2h5.3s5 0 5.3 0c.7 0 1.1-.1 1.5-.2 1.2-.3 2.2-1.1 2.7-2.2.3-.6.4-1.1.5-1.9 0-.2 0-2.9 0-5.7s0-5.5 0-5.7c-.1-.8-.2-1.3-.5-1.9-.2-.4-.5-.8-.9-1.1-.7-.6-1.5-1-2.4-1.2-.4-.1-.5-.1-2.9-.1z" fill="url(#b)"/><path d="m10 2.6c-2 0-2.3 0-3 0s-1.4.2-1.9.4c-.4.2-.8.4-1.3.8-.4.5-.6.9-.8 1.3-.2.5-.3 1-.3 1.8v3s0 2.3 0 3c0 .8.2 1.3.3 1.8.2.5.4.9.8 1.3s.8.7 1.3.8c.5.2 1 .3 1.8.3h3s2.3 0 3 0c.8 0 1.3-.2 1.8-.3.5-.2.9-.4 1.3-.8s.7-.8.8-1.3c.2-.5.3-1 .3-1.8s0-1 0-3 0-2.3 0-3c0-.8-.2-1.3-.3-1.8-.2-.5-.4-.9-.8-1.3s-.8-.7-1.3-.8c-.5-.2-1-.3-1.8-.3-.6-.1-.9-.1-2.9-.1zm-.7 1.3h.7 3c.7 0 1.1.2 1.4.3s.6.3.8.6c.3.3.4.5.6.8 0 .3.2.7.2 1.4v3s0 2.2 0 3c0 .7-.2 1.1-.3 1.4s-.3.6-.6.8c-.3.3-.5.4-.8.6-.2 0-.6.2-1.3.2-.8 0-1 0-3 0s-2.2 0-3 0c-.7 0-1.1-.2-1.4-.3s-.6-.3-.8-.6c-.3-.3-.4-.5-.6-.8-.1-.2-.2-.6-.2-1.3 0-.8 0-1 0-3s0-2.2 0-3c0-.7.2-1.1.3-1.4s.3-.6.6-.8c.3-.3.5-.4.8-.6.2-.1.6-.2 1.3-.2s1-.1 2.3-.1zm4.6 1.3c-.5 0-.9.4-.9.9s.4.9.9.9.9-.4.9-.9-.4-.9-.9-.9zm-3.9 1c-2.1 0-3.8 1.7-3.8 3.8s1.7 3.8 3.8 3.8 3.8-1.7 3.8-3.8-1.7-3.8-3.8-3.8zm0 1.3c1.4 0 2.5 1.1 2.5 2.5s-1.1 2.5-2.5 2.5-2.5-1.2-2.5-2.5 1.1-2.5 2.5-2.5z" fill="#fff"/></svg>