<svg enable-background="new 0 0 128.8 34.8" viewBox="0 0 128.8 34.8" xmlns="http://www.w3.org/2000/svg"><g fill="#003b48"><g transform="translate(4)"><path d="m74.5 10.4h2.2l1.9 7.2 2.1-7.2h1.5l2.1 7.2 1.9-7.2h2.2l-2.9 9.9h-2.2l-1.9-6.2-1.9 6.2h-2.2z"/><path d="m89.9 10.4h5.5v1.7h-3.6v2.4h3.4v1.7h-3.4v2.4h3.6v1.7h-5.5z"/><path d="m97.2 10.4h2.8c.8-.1 1.6.2 2.2.6.6.5.9 1.2.8 1.9.1.9-.4 1.8-1.3 2.2.6.1 1.2.4 1.6.8.4.5.6 1.1.6 1.7 0 .8-.3 1.5-.9 2-.7.5-1.5.7-2.3.7h-3.6zm2.4 4c.4 0 .8-.1 1.2-.3.3-.2.4-.5.4-.9 0-.8-.5-1.2-1.6-1.2h-.4v2.5h.4zm.5 4.4c1.2 0 1.8-.4 1.8-1.3 0-.4-.2-.8-.5-1-.4-.3-.9-.4-1.4-.4h-1v2.7z"/><path d="m75.6 24.8h2.7c.7 0 1.4.1 2 .4 1.2.5 2.2 1.5 2.7 2.7.3.6.4 1.2.4 1.9s-.1 1.3-.4 1.9-.6 1.1-1.1 1.6c-.4.5-1 .8-1.6 1s-1.3.4-2 .4h-2.7zm2.5 8.2c.6 0 1.1-.1 1.6-.4.4-.3.8-.7 1.1-1.1.3-.5.4-1 .4-1.6s-.1-1.1-.4-1.6c-.2-.5-.6-.9-1.1-1.1-.5-.3-1-.4-1.6-.4h-.6v6.2z"/><path d="m85.3 24.8h5.5v1.7h-3.6v2.4h3.4v1.7h-3.4v2.4h3.6v1.7h-5.5z"/><path d="m94.1 34.6c-.4-.2-.8-.4-1.2-.6-.3-.2-.6-.4-.8-.6l1-1.6c.2.2.5.4.7.5.3.2.6.4.9.5.4.1.7.2 1.1.2s.7-.1 1-.3.4-.5.4-.9c0-.3-.1-.6-.3-.8s-.5-.4-.8-.5c-.4-.1-.7-.3-1.1-.5-.3-.2-.7-.4-1-.6s-.6-.5-.7-.8c-.2-.3-.4-.7-.3-1.1 0-.5.1-1 .4-1.4s.7-.8 1.1-1.1c.5-.3 1.1-.4 1.7-.4.4 0 .7 0 1.1.1s.7.2 1 .4c.3.1.5.3.8.5l-.8 1.5-.9-.6c-.3-.2-.7-.2-1.1-.2s-.7.1-1 .3c-.2.2-.4.5-.4.8 0 .2.1.4.2.5.1.2.3.3.5.4.3.1.5.2.8.3.6.2 1.1.5 1.6.8.4.3.8.6 1.1 1s.4.9.4 1.4c0 .6-.2 1.1-.5 1.6s-.8.8-1.3 1c-.6.2-1.2.4-1.9.4-.6.1-1.2 0-1.7-.2z"/><path d="m101.4 24.8h1.9v9.9h-1.9z"/><path d="m108.2 34.5c-.6-.2-1.1-.6-1.5-1.1s-.8-1-1-1.6c-.5-1.3-.5-2.7-.1-4 .2-.6.6-1.1 1-1.6s1-.9 1.6-1.1c.7-.3 1.4-.4 2.1-.4.6 0 1.3.1 1.9.3s1.2.5 1.7.9l-.9 1.5c-.4-.3-.8-.6-1.3-.8s-1-.3-1.5-.3c-.6 0-1.1.1-1.6.4-.4.3-.8.7-1 1.2s-.3 1.1-.3 1.7.1 1.2.4 1.8c.3.5.6.9 1 1.2s.9.4 1.4.4c.4 0 .8-.1 1.2-.3s.7-.4.9-.8c.2-.3.3-.7.3-1.1v-.1h-2.6v-1.5h4.6v1.5c0 .6-.1 1.2-.4 1.7s-.6.9-1 1.3-.9.7-1.5.8c-.5.2-1.1.3-1.7.3-.6.1-1.2 0-1.7-.3z"/><path d="m116.7 24.8h1.9l4.3 6.7v-6.7h1.9v9.9h-1.9l-4.3-6.7v6.7h-1.9z"/></g><path d="m0 0h7.6l6.6 25.3 7.3-25.3h5.1l7.4 25.3 6.5-25.3h7.6l-10 34.6h-7.6l-6.5-21.5-6.5 21.5h-7.5z"/><path d="m44.5 0h9.5c2.4 0 4.7.4 6.9 1.3 2.1.9 4 2.1 5.6 3.7 3.3 3.2 5.1 7.7 5 12.3.1 4.6-1.7 9.1-5 12.3-1.6 1.6-3.5 2.9-5.6 3.7-2.2.9-4.5 1.3-6.9 1.3h-9.5zm8.8 28.6c2 0 3.9-.5 5.6-1.5 1.6-1 2.9-2.4 3.9-4 1-1.8 1.5-3.8 1.4-5.8 0-2-.5-4-1.4-5.8-.9-1.7-2.2-3.1-3.9-4-1.7-1-3.6-1.5-5.6-1.5h-2v22.5h2z"/></g></svg>