<?xml version="1.0" encoding="utf-8"?>
<!-- Generator: Adobe Illustrator 27.0.0, SVG Export Plug-In . SVG Version: 6.00 Build 0)  -->
<svg version="1.1" id="search" xmlns="http://www.w3.org/2000/svg" xmlns:xlink="http://www.w3.org/1999/xlink" x="0px" y="0px"
	 viewBox="0 0 30 30" style="enable-background:new 0 0 30 30;" xml:space="preserve" class="fill-blue">
<path d="M20.6,19.1c4.1-4.9,3.5-12.3-1.5-16.4S6.8-0.8,2.7,4.2s-3.5,12.3,1.5,16.4c2.1,1.8,4.7,2.7,7.5,2.7
	c2.7,0,5.4-1,7.5-2.7l9.1,9.1c0.4,0.4,1.1,0.4,1.5,0c0.4-0.4,0.4-1.1,0-1.5L20.6,19.1z M11.6,21.2c-5.3,0-9.5-4.3-9.5-9.5
	s4.3-9.5,9.5-9.5s9.5,4.3,9.5,9.5C21.2,16.9,16.9,21.2,11.6,21.2C11.6,21.2,11.6,21.2,11.6,21.2z"/>
</svg>
