<?xml version="1.0" encoding="utf-8"?>
<!-- Generator: Adobe Illustrator 26.5.0, SVG Export Plug-In . SVG Version: 6.00 Build 0)  -->
<svg version="1.1" id="Calque_1" xmlns="http://www.w3.org/2000/svg" xmlns:xlink="http://www.w3.org/1999/xlink" x="0px" y="0px"
	 viewBox="0 0 20 16.3" style="enable-background:new 0 0 20 16.3;" xml:space="preserve">
<style type="text/css">
	.twitter_blue{fill:#1D9BF0;}
</style>
<path class="twitter_blue" d="M18,4c0,0.2,0,0.4,0,0.5c0,5.4-4.1,11.7-11.7,11.7v0c-2.2,0-4.4-0.6-6.3-1.8c0.3,0,0.7,0.1,1,0.1
	c1.8,0,3.6-0.6,5.1-1.8c-1.8,0-3.3-1.2-3.8-2.8C2.9,10,3.5,10,4.1,9.8c-1.9-0.4-3.3-2.1-3.3-4V5.7C1.4,6,2,6.2,2.7,6.2
	C0.9,5,0.3,2.6,1.4,0.7C3.5,3.3,6.5,4.9,9.8,5C9.5,3.6,10,2.1,11,1.1c1.7-1.6,4.3-1.5,5.8,0.2c0.9-0.2,1.8-0.5,2.6-1
	c-0.3,0.9-0.9,1.8-1.8,2.3c0.8-0.1,1.6-0.3,2.4-0.6C19.4,2.7,18.8,3.5,18,4L18,4z"/>
</svg>
